<?xml version="1.0" encoding="UTF-8" standalone="no"?>
<!DOCTYPE svg PUBLIC "-//W3C//DTD SVG 1.1//EN"
 "http://www.w3.org/Graphics/SVG/1.1/DTD/svg11.dtd">
<!-- Generated by graphviz version 2.40.1 (20161225.0304)
 -->
<!-- Title: G Pages: 1 -->
<svg width="350pt" height="874pt"
 viewBox="0.00 0.00 350.39 874.00" xmlns="http://www.w3.org/2000/svg" xmlns:xlink="http://www.w3.org/1999/xlink">
<g id="graph0" class="graph" transform="scale(1 1) rotate(0) translate(4 870)">
<title>G</title>
<polygon fill="#ffffff" stroke="transparent" points="-4,4 -4,-870 346.391,-870 346.391,4 -4,4"/>
<g id="clust1" class="cluster">
<title>cluster_Global</title>
<path fill="none" stroke="#c0c0c0" d="M169.391,-8C169.391,-8 322.391,-8 322.391,-8 328.391,-8 334.391,-14 334.391,-20 334.391,-20 334.391,-846 334.391,-846 334.391,-852 328.391,-858 322.391,-858 322.391,-858 169.391,-858 169.391,-858 163.391,-858 157.391,-852 157.391,-846 157.391,-846 157.391,-20 157.391,-20 157.391,-14 163.391,-8 169.391,-8"/>
<text text-anchor="middle" x="245.891" y="-845.2" font-family="Times,serif" font-size="11.00" fill="#c0c0c0">Global</text>
</g>
<g id="clust2" class="cluster">
<title>cluster_\EcasPhpCASParser</title>
<path fill="none" stroke="#c0c0c0" d="M187.391,-758C187.391,-758 304.391,-758 304.391,-758 310.391,-758 316.391,-764 316.391,-770 316.391,-770 316.391,-818 316.391,-818 316.391,-824 310.391,-830 304.391,-830 304.391,-830 187.391,-830 187.391,-830 181.391,-830 175.391,-824 175.391,-818 175.391,-818 175.391,-770 175.391,-770 175.391,-764 181.391,-758 187.391,-758"/>
<text text-anchor="middle" x="245.891" y="-817.2" font-family="Times,serif" font-size="11.00" fill="#c0c0c0">EcasPhpCASParser</text>
</g>
<g id="clust3" class="cluster">
<title>cluster_\iTopApi</title>
<path fill="none" stroke="#c0c0c0" d="M207.891,-624C207.891,-624 283.891,-624 283.891,-624 289.891,-624 295.891,-630 295.891,-636 295.891,-636 295.891,-738 295.891,-738 295.891,-744 289.891,-750 283.891,-750 283.891,-750 207.891,-750 207.891,-750 201.891,-750 195.891,-744 195.891,-738 195.891,-738 195.891,-636 195.891,-636 195.891,-630 201.891,-624 207.891,-624"/>
<text text-anchor="middle" x="245.891" y="-737.2" font-family="Times,serif" font-size="11.00" fill="#c0c0c0">iTopApi</text>
</g>
<g id="clust4" class="cluster">
<title>cluster_\PhpGit</title>
<path fill="none" stroke="#c0c0c0" d="M194.391,-490C194.391,-490 297.391,-490 297.391,-490 303.391,-490 309.391,-496 309.391,-502 309.391,-502 309.391,-604 309.391,-604 309.391,-610 303.391,-616 297.391,-616 297.391,-616 194.391,-616 194.391,-616 188.391,-616 182.391,-610 182.391,-604 182.391,-604 182.391,-502 182.391,-502 182.391,-496 188.391,-490 194.391,-490"/>
<text text-anchor="middle" x="245.891" y="-603.2" font-family="Times,serif" font-size="11.00" fill="#c0c0c0">PhpGit</text>
</g>
<g id="clust5" class="cluster">
<title>cluster_\BacktracTasks</title>
<path fill="none" stroke="#c0c0c0" d="M177.391,-356C177.391,-356 314.391,-356 314.391,-356 320.391,-356 326.391,-362 326.391,-368 326.391,-368 326.391,-470 326.391,-470 326.391,-476 320.391,-482 314.391,-482 314.391,-482 177.391,-482 177.391,-482 171.391,-482 165.391,-476 165.391,-470 165.391,-470 165.391,-368 165.391,-368 165.391,-362 171.391,-356 177.391,-356"/>
<text text-anchor="middle" x="245.891" y="-469.2" font-family="Times,serif" font-size="11.00" fill="#c0c0c0">BacktracTasks</text>
</g>
<g id="clust6" class="cluster">
<title>cluster_\EC</title>
<path fill="none" stroke="#c0c0c0" d="M201.891,-150C201.891,-150 289.891,-150 289.891,-150 295.891,-150 301.891,-156 301.891,-162 301.891,-162 301.891,-336 301.891,-336 301.891,-342 295.891,-348 289.891,-348 289.891,-348 201.891,-348 201.891,-348 195.891,-348 189.891,-342 189.891,-336 189.891,-336 189.891,-162 189.891,-162 189.891,-156 195.891,-150 201.891,-150"/>
<text text-anchor="middle" x="245.891" y="-335.2" font-family="Times,serif" font-size="11.00" fill="#c0c0c0">EC</text>
</g>
<g id="clust7" class="cluster">
<title>cluster_\EC\Utils</title>
<path fill="none" stroke="#c0c0c0" d="M209.891,-158C209.891,-158 281.891,-158 281.891,-158 287.891,-158 293.891,-164 293.891,-170 293.891,-170 293.891,-308 293.891,-308 293.891,-314 287.891,-320 281.891,-320 281.891,-320 209.891,-320 209.891,-320 203.891,-320 197.891,-314 197.891,-308 197.891,-308 197.891,-170 197.891,-170 197.891,-164 203.891,-158 209.891,-158"/>
<text text-anchor="middle" x="245.891" y="-307.2" font-family="Times,serif" font-size="11.00" fill="#c0c0c0">Utils</text>
</g>
<g id="clust8" class="cluster">
<title>cluster_\EC\Utils\Backtrac</title>
<path fill="none" stroke="#c0c0c0" d="M217.891,-166C217.891,-166 273.891,-166 273.891,-166 279.891,-166 285.891,-172 285.891,-178 285.891,-178 285.891,-280 285.891,-280 285.891,-286 279.891,-292 273.891,-292 273.891,-292 217.891,-292 217.891,-292 211.891,-292 205.891,-286 205.891,-280 205.891,-280 205.891,-178 205.891,-178 205.891,-172 211.891,-166 217.891,-166"/>
<text text-anchor="middle" x="245.891" y="-279.2" font-family="Times,serif" font-size="11.00" fill="#c0c0c0">Backtrac</text>
</g>
<g id="clust9" class="cluster">
<title>cluster_\PhpDrush</title>
<path fill="none" stroke="#c0c0c0" d="M184.391,-16C184.391,-16 307.391,-16 307.391,-16 313.391,-16 319.391,-22 319.391,-28 319.391,-28 319.391,-130 319.391,-130 319.391,-136 313.391,-142 307.391,-142 307.391,-142 184.391,-142 184.391,-142 178.391,-142 172.391,-136 172.391,-130 172.391,-130 172.391,-28 172.391,-28 172.391,-22 178.391,-16 184.391,-16"/>
<text text-anchor="middle" x="245.891" y="-129.2" font-family="Times,serif" font-size="11.00" fill="#c0c0c0">PhpDrush</text>
</g>
<!-- \\EcasPhpCASParser\\EcasPhpCASParser -->
<g id="node1" class="node">
<title>\\EcasPhpCASParser\\EcasPhpCASParser</title>
<polygon fill="none" stroke="#000000" points="308.391,-802 183.391,-802 183.391,-766 308.391,-766 308.391,-802"/>
<text text-anchor="middle" x="245.891" y="-781.2" font-family="Courier,monospace" font-size="11.00" fill="#000000">EcasPhpCASParser</text>
</g>
<!-- \\iTopApi\\ITopClient -->
<g id="node2" class="node">
<title>\\iTopApi\\ITopClient</title>
<polygon fill="none" stroke="#000000" points="287.891,-722 203.891,-722 203.891,-686 287.891,-686 287.891,-722"/>
<text text-anchor="middle" x="245.891" y="-701.2" font-family="Courier,monospace" font-size="11.00" fill="#000000">ITopClient</text>
</g>
<!-- \\iTopApi\\ITopObject -->
<g id="node3" class="node">
<title>\\iTopApi\\ITopObject</title>
<polygon fill="none" stroke="#000000" points="287.891,-668 203.891,-668 203.891,-632 287.891,-632 287.891,-668"/>
<text text-anchor="middle" x="245.891" y="-647.2" font-family="Courier,monospace" font-size="11.00" fill="#000000">ITopObject</text>
</g>
<!-- \\PhpGit\\GitWorkingCopy -->
<g id="node4" class="node">
<title>\\PhpGit\\GitWorkingCopy</title>
<polygon fill="none" stroke="#000000" points="301.391,-588 190.391,-588 190.391,-552 301.391,-552 301.391,-588"/>
<text text-anchor="middle" x="245.891" y="-567.2" font-family="Courier,monospace" font-size="11.00" fill="#000000">GitWorkingCopy</text>
</g>
<!-- \\PhpGit\\GitRemoteRepo -->
<g id="node5" class="node">
<title>\\PhpGit\\GitRemoteRepo</title>
<polygon fill="none" stroke="#000000" points="297.891,-534 193.891,-534 193.891,-498 297.891,-498 297.891,-534"/>
<text text-anchor="middle" x="245.891" y="-513.2" font-family="Courier,monospace" font-size="11.00" fill="#000000">GitRemoteRepo</text>
</g>
<!-- \\BacktracTasks\\BacktracCompareTask -->
<g id="node6" class="node">
<title>\\BacktracTasks\\BacktracCompareTask</title>
<polygon fill="none" stroke="#000000" points="318.391,-454 173.391,-454 173.391,-418 318.391,-418 318.391,-454"/>
<text text-anchor="middle" x="245.891" y="-433.2" font-family="Courier,monospace" font-size="11.00" fill="#000000">BacktracCompareTask</text>
</g>
<!-- \\Task -->
<g id="node12" class="node">
<title>\\Task</title>
<ellipse fill="none" stroke="#000000" cx="50.6955" cy="-409" rx="32.4942" ry="18"/>
<text text-anchor="middle" x="50.6955" y="-405.3" font-family="Times,serif" font-size="14.00" fill="#c0c0c0">Task</text>
</g>
<!-- \\BacktracTasks\\BacktracCompareTask&#45;&gt;\\Task -->
<g id="edge1" class="edge">
<title>\\BacktracTasks\\BacktracCompareTask&#45;&gt;\\Task</title>
<path fill="none" stroke="#000000" d="M173.2074,-425.9462C145.9201,-422.1717 115.8481,-418.0121 92.3268,-414.7586"/>
<polygon fill="none" stroke="#000000" points="92.7306,-411.2812 82.3453,-413.3779 91.7714,-418.2151 92.7306,-411.2812"/>
</g>
<!-- \\BacktracTasks\\BacktracSetUrlTask -->
<g id="node7" class="node">
<title>\\BacktracTasks\\BacktracSetUrlTask</title>
<polygon fill="none" stroke="#000000" points="314.891,-400 176.891,-400 176.891,-364 314.891,-364 314.891,-400"/>
<text text-anchor="middle" x="245.891" y="-379.2" font-family="Courier,monospace" font-size="11.00" fill="#000000">BacktracSetUrlTask</text>
</g>
<!-- \\BacktracTasks\\BacktracSetUrlTask&#45;&gt;\\Task -->
<g id="edge2" class="edge">
<title>\\BacktracTasks\\BacktracSetUrlTask&#45;&gt;\\Task</title>
<path fill="none" stroke="#000000" d="M176.7977,-391.5572C148.5848,-395.4597 116.8883,-399.844 92.3312,-403.2408"/>
<polygon fill="none" stroke="#000000" points="91.7009,-399.7946 82.2748,-404.6319 92.6601,-406.7286 91.7009,-399.7946"/>
</g>
<!-- \\EC\\Utils\\Backtrac\\Client -->
<g id="node8" class="node">
<title>\\EC\\Utils\\Backtrac\\Client</title>
<polygon fill="none" stroke="#000000" points="274.391,-264 217.391,-264 217.391,-228 274.391,-228 274.391,-264"/>
<text text-anchor="middle" x="245.891" y="-243.2" font-family="Courier,monospace" font-size="11.00" fill="#000000">Client</text>
</g>
<!-- \\EC\\Utils\\Backtrac\\Website -->
<g id="node9" class="node">
<title>\\EC\\Utils\\Backtrac\\Website</title>
<polygon fill="none" stroke="#000000" points="277.891,-210 213.891,-210 213.891,-174 277.891,-174 277.891,-210"/>
<text text-anchor="middle" x="245.891" y="-189.2" font-family="Courier,monospace" font-size="11.00" fill="#000000">Website</text>
</g>
<!-- \\PhpDrush\\PhpDrush -->
<g id="node10" class="node">
<title>\\PhpDrush\\PhpDrush</title>
<polygon fill="none" stroke="#000000" points="281.391,-114 210.391,-114 210.391,-78 281.391,-78 281.391,-114"/>
<text text-anchor="middle" x="245.891" y="-93.2" font-family="Courier,monospace" font-size="11.00" fill="#000000">PhpDrush</text>
</g>
<!-- \\PhpDrush\\PhpDrushException -->
<g id="node11" class="node">
<title>\\PhpDrush\\PhpDrushException</title>
<polygon fill="none" stroke="#000000" points="311.391,-60 180.391,-60 180.391,-24 311.391,-24 311.391,-60"/>
<text text-anchor="middle" x="245.891" y="-39.2" font-family="Courier,monospace" font-size="11.00" fill="#000000">PhpDrushException</text>
</g>
<!-- \\Exception -->
<g id="node13" class="node">
<title>\\Exception</title>
<ellipse fill="none" stroke="#000000" cx="50.6955" cy="-42" rx="50.8918" ry="18"/>
<text text-anchor="middle" x="50.6955" y="-38.3" font-family="Times,serif" font-size="14.00" fill="#c0c0c0">xception</text>
</g>
<!-- \\PhpDrush\\PhpDrushException&#45;&gt;\\Exception -->
<g id="edge3" class="edge">
<title>\\PhpDrush\\PhpDrushException&#45;&gt;\\Exception</title>
<path fill="none" stroke="#000000" d="M180.3507,-42C158.1687,-42 133.5012,-42 111.687,-42"/>
<polygon fill="none" stroke="#000000" points="111.5588,-38.5001 101.5587,-42 111.5587,-45.5001 111.5588,-38.5001"/>
</g>
</g>
</svg>
