<?xml version="1.0" encoding="UTF-8" standalone="no"?>
<!DOCTYPE svg PUBLIC "-//W3C//DTD SVG 1.1//EN"
 "http://www.w3.org/Graphics/SVG/1.1/DTD/svg11.dtd">
<!-- Generated by graphviz version 2.26.0 (20091210.2329)
 -->
<!-- Title: G Pages: 1 -->
<svg width="376pt" height="901pt"
 viewBox="0.00 0.00 376.00 901.00" xmlns="http://www.w3.org/2000/svg" xmlns:xlink="http://www.w3.org/1999/xlink">
<g id="graph1" class="graph" transform="scale(1 1) rotate(0) translate(4 897)">
<title>G</title>
<polygon fill="white" stroke="white" points="-4,5 -4,-897 373,-897 373,5 -4,5"/>
<g id="graph2" class="cluster"><title>cluster_Global</title>
<polyline fill="none" stroke="gray" points="194,-8 348,-8 "/>
<path fill="none" stroke="gray" d="M348,-8C354,-8 360,-14 360,-20"/>
<polyline fill="none" stroke="gray" points="360,-20 360,-873 "/>
<path fill="none" stroke="gray" d="M360,-873C360,-879 354,-885 348,-885"/>
<polyline fill="none" stroke="gray" points="348,-885 194,-885 "/>
<path fill="none" stroke="gray" d="M194,-885C188,-885 182,-879 182,-873"/>
<polyline fill="none" stroke="gray" points="182,-873 182,-20 "/>
<path fill="none" stroke="gray" d="M182,-20C182,-14 188,-8 194,-8"/>
<text text-anchor="middle" x="271" y="-871.1" font-family="Times Roman,serif" font-size="11.00" fill="gray">Global</text>
</g>
<g id="graph3" class="cluster"><title>cluster_\EcasPhpCASParser</title>
<polyline fill="none" stroke="gray" points="212,-779 330,-779 "/>
<path fill="none" stroke="gray" d="M330,-779C336,-779 342,-785 342,-791"/>
<polyline fill="none" stroke="gray" points="342,-791 342,-842 "/>
<path fill="none" stroke="gray" d="M342,-842C342,-848 336,-854 330,-854"/>
<polyline fill="none" stroke="gray" points="330,-854 212,-854 "/>
<path fill="none" stroke="gray" d="M212,-854C206,-854 200,-848 200,-842"/>
<polyline fill="none" stroke="gray" points="200,-842 200,-791 "/>
<path fill="none" stroke="gray" d="M200,-791C200,-785 206,-779 212,-779"/>
<text text-anchor="middle" x="271" y="-840.1" font-family="Times Roman,serif" font-size="11.00" fill="gray">EcasPhpCASParser</text>
</g>
<g id="graph4" class="cluster"><title>cluster_\iTopApi</title>
<polyline fill="none" stroke="gray" points="233,-642 309,-642 "/>
<path fill="none" stroke="gray" d="M309,-642C315,-642 321,-648 321,-654"/>
<polyline fill="none" stroke="gray" points="321,-654 321,-759 "/>
<path fill="none" stroke="gray" d="M321,-759C321,-765 315,-771 309,-771"/>
<polyline fill="none" stroke="gray" points="309,-771 233,-771 "/>
<path fill="none" stroke="gray" d="M233,-771C227,-771 221,-765 221,-759"/>
<polyline fill="none" stroke="gray" points="221,-759 221,-654 "/>
<path fill="none" stroke="gray" d="M221,-654C221,-648 227,-642 233,-642"/>
<text text-anchor="middle" x="271" y="-757.1" font-family="Times Roman,serif" font-size="11.00" fill="gray">iTopApi</text>
</g>
<g id="graph5" class="cluster"><title>cluster_\PhpGit</title>
<polyline fill="none" stroke="gray" points="219,-505 323,-505 "/>
<path fill="none" stroke="gray" d="M323,-505C329,-505 335,-511 335,-517"/>
<polyline fill="none" stroke="gray" points="335,-517 335,-622 "/>
<path fill="none" stroke="gray" d="M335,-622C335,-628 329,-634 323,-634"/>
<polyline fill="none" stroke="gray" points="323,-634 219,-634 "/>
<path fill="none" stroke="gray" d="M219,-634C213,-634 207,-628 207,-622"/>
<polyline fill="none" stroke="gray" points="207,-622 207,-517 "/>
<path fill="none" stroke="gray" d="M207,-517C207,-511 213,-505 219,-505"/>
<text text-anchor="middle" x="271" y="-620.1" font-family="Times Roman,serif" font-size="11.00" fill="gray">PhpGit</text>
</g>
<g id="graph6" class="cluster"><title>cluster_\BacktracTasks</title>
<polyline fill="none" stroke="gray" points="202,-368 340,-368 "/>
<path fill="none" stroke="gray" d="M340,-368C346,-368 352,-374 352,-380"/>
<polyline fill="none" stroke="gray" points="352,-380 352,-485 "/>
<path fill="none" stroke="gray" d="M352,-485C352,-491 346,-497 340,-497"/>
<polyline fill="none" stroke="gray" points="340,-497 202,-497 "/>
<path fill="none" stroke="gray" d="M202,-497C196,-497 190,-491 190,-485"/>
<polyline fill="none" stroke="gray" points="190,-485 190,-380 "/>
<path fill="none" stroke="gray" d="M190,-380C190,-374 196,-368 202,-368"/>
<text text-anchor="middle" x="271" y="-483.1" font-family="Times Roman,serif" font-size="11.00" fill="gray">BacktracTasks</text>
</g>
<g id="graph7" class="cluster"><title>cluster_\EC</title>
<polyline fill="none" stroke="gray" points="227,-153 315,-153 "/>
<path fill="none" stroke="gray" d="M315,-153C321,-153 327,-159 327,-165"/>
<polyline fill="none" stroke="gray" points="327,-165 327,-348 "/>
<path fill="none" stroke="gray" d="M327,-348C327,-354 321,-360 315,-360"/>
<polyline fill="none" stroke="gray" points="315,-360 227,-360 "/>
<path fill="none" stroke="gray" d="M227,-360C221,-360 215,-354 215,-348"/>
<polyline fill="none" stroke="gray" points="215,-348 215,-165 "/>
<path fill="none" stroke="gray" d="M215,-165C215,-159 221,-153 227,-153"/>
<text text-anchor="middle" x="271" y="-346.1" font-family="Times Roman,serif" font-size="11.00" fill="gray">EC</text>
</g>
<g id="graph8" class="cluster"><title>cluster_\EC\Utils</title>
<polyline fill="none" stroke="gray" points="235,-161 307,-161 "/>
<path fill="none" stroke="gray" d="M307,-161C313,-161 319,-167 319,-173"/>
<polyline fill="none" stroke="gray" points="319,-173 319,-317 "/>
<path fill="none" stroke="gray" d="M319,-317C319,-323 313,-329 307,-329"/>
<polyline fill="none" stroke="gray" points="307,-329 235,-329 "/>
<path fill="none" stroke="gray" d="M235,-329C229,-329 223,-323 223,-317"/>
<polyline fill="none" stroke="gray" points="223,-317 223,-173 "/>
<path fill="none" stroke="gray" d="M223,-173C223,-167 229,-161 235,-161"/>
<text text-anchor="middle" x="271" y="-315.1" font-family="Times Roman,serif" font-size="11.00" fill="gray">Utils</text>
</g>
<g id="graph9" class="cluster"><title>cluster_\EC\Utils\Backtrac</title>
<polyline fill="none" stroke="gray" points="243,-169 299,-169 "/>
<path fill="none" stroke="gray" d="M299,-169C305,-169 311,-175 311,-181"/>
<polyline fill="none" stroke="gray" points="311,-181 311,-286 "/>
<path fill="none" stroke="gray" d="M311,-286C311,-292 305,-298 299,-298"/>
<polyline fill="none" stroke="gray" points="299,-298 243,-298 "/>
<path fill="none" stroke="gray" d="M243,-298C237,-298 231,-292 231,-286"/>
<polyline fill="none" stroke="gray" points="231,-286 231,-181 "/>
<path fill="none" stroke="gray" d="M231,-181C231,-175 237,-169 243,-169"/>
<text text-anchor="middle" x="271" y="-284.1" font-family="Times Roman,serif" font-size="11.00" fill="gray">Backtrac</text>
</g>
<g id="graph10" class="cluster"><title>cluster_\PhpDrush</title>
<polyline fill="none" stroke="gray" points="209,-16 333,-16 "/>
<path fill="none" stroke="gray" d="M333,-16C339,-16 345,-22 345,-28"/>
<polyline fill="none" stroke="gray" points="345,-28 345,-133 "/>
<path fill="none" stroke="gray" d="M345,-133C345,-139 339,-145 333,-145"/>
<polyline fill="none" stroke="gray" points="333,-145 209,-145 "/>
<path fill="none" stroke="gray" d="M209,-145C203,-145 197,-139 197,-133"/>
<polyline fill="none" stroke="gray" points="197,-133 197,-28 "/>
<path fill="none" stroke="gray" d="M197,-28C197,-22 203,-16 209,-16"/>
<text text-anchor="middle" x="271" y="-131.1" font-family="Times Roman,serif" font-size="11.00" fill="gray">PhpDrush</text>
</g>
<!-- \\EcasPhpCASParser\\EcasPhpCASParser -->
<g id="node3" class="node"><title>\\EcasPhpCASParser\\EcasPhpCASParser</title>
<polygon fill="none" stroke="black" points="333,-823 209,-823 209,-787 333,-787 333,-823"/>
<text text-anchor="middle" x="271" y="-802.1" font-family="Courier,monospace" font-size="11.00">EcasPhpCASParser</text>
</g>
<!-- \\iTopApi\\ITopClient -->
<g id="node5" class="node"><title>\\iTopApi\\ITopClient</title>
<polygon fill="none" stroke="black" points="313,-740 229,-740 229,-704 313,-704 313,-740"/>
<text text-anchor="middle" x="271" y="-719.1" font-family="Courier,monospace" font-size="11.00">ITopClient</text>
</g>
<!-- \\iTopApi\\ITopObject -->
<g id="node6" class="node"><title>\\iTopApi\\ITopObject</title>
<polygon fill="none" stroke="black" points="313,-686 229,-686 229,-650 313,-650 313,-686"/>
<text text-anchor="middle" x="271" y="-665.1" font-family="Courier,monospace" font-size="11.00">ITopObject</text>
</g>
<!-- \\PhpGit\\GitWorkingCopy -->
<g id="node8" class="node"><title>\\PhpGit\\GitWorkingCopy</title>
<polygon fill="none" stroke="black" points="326,-603 216,-603 216,-567 326,-567 326,-603"/>
<text text-anchor="middle" x="271" y="-582.1" font-family="Courier,monospace" font-size="11.00">GitWorkingCopy</text>
</g>
<!-- \\PhpGit\\GitRemoteRepo -->
<g id="node9" class="node"><title>\\PhpGit\\GitRemoteRepo</title>
<polygon fill="none" stroke="black" points="323,-549 219,-549 219,-513 323,-513 323,-549"/>
<text text-anchor="middle" x="271" y="-528.1" font-family="Courier,monospace" font-size="11.00">GitRemoteRepo</text>
</g>
<!-- \\BacktracTasks\\BacktracCompareTask -->
<g id="node11" class="node"><title>\\BacktracTasks\\BacktracCompareTask</title>
<polygon fill="none" stroke="black" points="343,-466 199,-466 199,-430 343,-430 343,-466"/>
<text text-anchor="middle" x="271" y="-445.1" font-family="Courier,monospace" font-size="11.00">BacktracCompareTask</text>
</g>
<!-- \\Task -->
<g id="node22" class="node"><title>\\Task</title>
<ellipse fill="none" stroke="black" cx="63" cy="-421" rx="29.9071" ry="19.0919"/>
<text text-anchor="middle" x="63" y="-417.9" font-family="Times Roman,serif" font-size="14.00" fill="gray">Task</text>
</g>
<!-- \\BacktracTasks\\BacktracCompareTask&#45;&gt;\\Task -->
<g id="edge11" class="edge"><title>\\BacktracTasks\\BacktracCompareTask&#45;&gt;\\Task</title>
<path fill="none" stroke="black" d="M198.252,-438.557C166.398,-434.422 130.232,-429.727 103.317,-426.233"/>
<polygon fill="none" stroke="black" points="103.487,-422.726 93.12,-424.91 102.586,-429.668 103.487,-422.726"/>
</g>
<!-- \\BacktracTasks\\BacktracSetUrlTask -->
<g id="node12" class="node"><title>\\BacktracTasks\\BacktracSetUrlTask</title>
<polygon fill="none" stroke="black" points="340,-412 202,-412 202,-376 340,-376 340,-412"/>
<text text-anchor="middle" x="271" y="-391.1" font-family="Courier,monospace" font-size="11.00">BacktracSetUrlTask</text>
</g>
<!-- \\BacktracTasks\\BacktracSetUrlTask&#45;&gt;\\Task -->
<g id="edge13" class="edge"><title>\\BacktracTasks\\BacktracSetUrlTask&#45;&gt;\\Task</title>
<path fill="none" stroke="black" d="M201.739,-402.991C169.044,-407.235 131.174,-412.15 103.268,-415.773"/>
<polygon fill="none" stroke="black" points="102.558,-412.336 93.0922,-417.094 103.46,-419.277 102.558,-412.336"/>
</g>
<!-- \\EC\\Utils\\Backtrac\\Client -->
<g id="node16" class="node"><title>\\EC\\Utils\\Backtrac\\Client</title>
<polygon fill="none" stroke="black" points="299,-267 243,-267 243,-231 299,-231 299,-267"/>
<text text-anchor="middle" x="271" y="-246.1" font-family="Courier,monospace" font-size="11.00">Client</text>
</g>
<!-- \\EC\\Utils\\Backtrac\\Website -->
<g id="node17" class="node"><title>\\EC\\Utils\\Backtrac\\Website</title>
<polygon fill="none" stroke="black" points="303,-213 239,-213 239,-177 303,-177 303,-213"/>
<text text-anchor="middle" x="271" y="-192.1" font-family="Courier,monospace" font-size="11.00">Website</text>
</g>
<!-- \\PhpDrush\\PhpDrush -->
<g id="node19" class="node"><title>\\PhpDrush\\PhpDrush</title>
<polygon fill="none" stroke="black" points="306,-114 236,-114 236,-78 306,-78 306,-114"/>
<text text-anchor="middle" x="271" y="-93.1" font-family="Courier,monospace" font-size="11.00">PhpDrush</text>
</g>
<!-- \\PhpDrush\\PhpDrushException -->
<g id="node20" class="node"><title>\\PhpDrush\\PhpDrushException</title>
<polygon fill="none" stroke="black" points="336,-60 206,-60 206,-24 336,-24 336,-60"/>
<text text-anchor="middle" x="271" y="-39.1" font-family="Courier,monospace" font-size="11.00">PhpDrushException</text>
</g>
<!-- \\Exception -->
<g id="node25" class="node"><title>\\Exception</title>
<ellipse fill="none" stroke="black" cx="63" cy="-42" rx="62.9325" ry="19.0919"/>
<text text-anchor="middle" x="63" y="-38.9" font-family="Times Roman,serif" font-size="14.00" fill="gray">TEHxception</text>
</g>
<!-- \\PhpDrush\\PhpDrushException&#45;&gt;\\Exception -->
<g id="edge15" class="edge"><title>\\PhpDrush\\PhpDrushException&#45;&gt;\\Exception</title>
<path fill="none" stroke="black" d="M205.473,-42C183.478,-42 158.81,-42 136.26,-42"/>
<polygon fill="none" stroke="black" points="136.066,-38.5001 126.066,-42 136.066,-45.5001 136.066,-38.5001"/>
</g>
</g>
</svg>
