<?xml version="1.0" encoding="UTF-8" standalone="no"?>
<!DOCTYPE svg PUBLIC "-//W3C//DTD SVG 1.1//EN"
 "http://www.w3.org/Graphics/SVG/1.1/DTD/svg11.dtd">
<!-- Generated by graphviz version 2.26.0 (20091210.2329)
 -->
<!-- Title: G Pages: 1 -->
<svg width="362pt" height="466pt"
 viewBox="0.00 0.00 362.00 466.00" xmlns="http://www.w3.org/2000/svg" xmlns:xlink="http://www.w3.org/1999/xlink">
<g id="graph1" class="graph" transform="scale(1 1) rotate(0) translate(4 462)">
<title>G</title>
<polygon fill="white" stroke="white" points="-4,5 -4,-462 359,-462 359,5 -4,5"/>
<g id="graph2" class="cluster"><title>cluster_Global</title>
<polyline fill="none" stroke="gray" points="194,-8 334,-8 "/>
<path fill="none" stroke="gray" d="M334,-8C340,-8 346,-14 346,-20"/>
<polyline fill="none" stroke="gray" points="346,-20 346,-438 "/>
<path fill="none" stroke="gray" d="M346,-438C346,-444 340,-450 334,-450"/>
<polyline fill="none" stroke="gray" points="334,-450 194,-450 "/>
<path fill="none" stroke="gray" d="M194,-450C188,-450 182,-444 182,-438"/>
<polyline fill="none" stroke="gray" points="182,-438 182,-20 "/>
<path fill="none" stroke="gray" d="M182,-20C182,-14 188,-8 194,-8"/>
<text text-anchor="middle" x="264" y="-436.1" font-family="Times Roman,serif" font-size="11.00" fill="gray">Global</text>
</g>
<g id="graph3" class="cluster"><title>cluster_\iTopApi</title>
<polyline fill="none" stroke="gray" points="226,-290 302,-290 "/>
<path fill="none" stroke="gray" d="M302,-290C308,-290 314,-296 314,-302"/>
<polyline fill="none" stroke="gray" points="314,-302 314,-407 "/>
<path fill="none" stroke="gray" d="M314,-407C314,-413 308,-419 302,-419"/>
<polyline fill="none" stroke="gray" points="302,-419 226,-419 "/>
<path fill="none" stroke="gray" d="M226,-419C220,-419 214,-413 214,-407"/>
<polyline fill="none" stroke="gray" points="214,-407 214,-302 "/>
<path fill="none" stroke="gray" d="M214,-302C214,-296 220,-290 226,-290"/>
<text text-anchor="middle" x="264" y="-405.1" font-family="Times Roman,serif" font-size="11.00" fill="gray">iTopApi</text>
</g>
<g id="graph4" class="cluster"><title>cluster_\PhpGit</title>
<polyline fill="none" stroke="gray" points="212,-153 316,-153 "/>
<path fill="none" stroke="gray" d="M316,-153C322,-153 328,-159 328,-165"/>
<polyline fill="none" stroke="gray" points="328,-165 328,-270 "/>
<path fill="none" stroke="gray" d="M328,-270C328,-276 322,-282 316,-282"/>
<polyline fill="none" stroke="gray" points="316,-282 212,-282 "/>
<path fill="none" stroke="gray" d="M212,-282C206,-282 200,-276 200,-270"/>
<polyline fill="none" stroke="gray" points="200,-270 200,-165 "/>
<path fill="none" stroke="gray" d="M200,-165C200,-159 206,-153 212,-153"/>
<text text-anchor="middle" x="264" y="-268.1" font-family="Times Roman,serif" font-size="11.00" fill="gray">PhpGit</text>
</g>
<g id="graph5" class="cluster"><title>cluster_\PhpDrush</title>
<polyline fill="none" stroke="gray" points="202,-16 326,-16 "/>
<path fill="none" stroke="gray" d="M326,-16C332,-16 338,-22 338,-28"/>
<polyline fill="none" stroke="gray" points="338,-28 338,-133 "/>
<path fill="none" stroke="gray" d="M338,-133C338,-139 332,-145 326,-145"/>
<polyline fill="none" stroke="gray" points="326,-145 202,-145 "/>
<path fill="none" stroke="gray" d="M202,-145C196,-145 190,-139 190,-133"/>
<polyline fill="none" stroke="gray" points="190,-133 190,-28 "/>
<path fill="none" stroke="gray" d="M190,-28C190,-22 196,-16 202,-16"/>
<text text-anchor="middle" x="264" y="-131.1" font-family="Times Roman,serif" font-size="11.00" fill="gray">PhpDrush</text>
</g>
<!-- \\iTopApi\\ITopClient -->
<g id="node3" class="node"><title>\\iTopApi\\ITopClient</title>
<polygon fill="none" stroke="black" points="306,-388 222,-388 222,-352 306,-352 306,-388"/>
<text text-anchor="middle" x="264" y="-367.1" font-family="Courier,monospace" font-size="11.00">ITopClient</text>
</g>
<!-- \\iTopApi\\ITopObject -->
<g id="node4" class="node"><title>\\iTopApi\\ITopObject</title>
<polygon fill="none" stroke="black" points="306,-334 222,-334 222,-298 306,-298 306,-334"/>
<text text-anchor="middle" x="264" y="-313.1" font-family="Courier,monospace" font-size="11.00">ITopObject</text>
</g>
<!-- \\PhpGit\\GitWorkingCopy -->
<g id="node6" class="node"><title>\\PhpGit\\GitWorkingCopy</title>
<polygon fill="none" stroke="black" points="319,-251 209,-251 209,-215 319,-215 319,-251"/>
<text text-anchor="middle" x="264" y="-230.1" font-family="Courier,monospace" font-size="11.00">GitWorkingCopy</text>
</g>
<!-- \\PhpGit\\GitRemoteRepo -->
<g id="node7" class="node"><title>\\PhpGit\\GitRemoteRepo</title>
<polygon fill="none" stroke="black" points="316,-197 212,-197 212,-161 316,-161 316,-197"/>
<text text-anchor="middle" x="264" y="-176.1" font-family="Courier,monospace" font-size="11.00">GitRemoteRepo</text>
</g>
<!-- \\PhpDrush\\PhpDrush -->
<g id="node9" class="node"><title>\\PhpDrush\\PhpDrush</title>
<polygon fill="none" stroke="black" points="299,-114 229,-114 229,-78 299,-78 299,-114"/>
<text text-anchor="middle" x="264" y="-93.1" font-family="Courier,monospace" font-size="11.00">PhpDrush</text>
</g>
<!-- \\PhpDrush\\PhpDrushException -->
<g id="node10" class="node"><title>\\PhpDrush\\PhpDrushException</title>
<polygon fill="none" stroke="black" points="329,-60 199,-60 199,-24 329,-24 329,-60"/>
<text text-anchor="middle" x="264" y="-39.1" font-family="Courier,monospace" font-size="11.00">PhpDrushException</text>
</g>
<!-- \\Exception -->
<g id="node12" class="node"><title>\\Exception</title>
<ellipse fill="none" stroke="black" cx="63" cy="-42" rx="62.9325" ry="19.0919"/>
<text text-anchor="middle" x="63" y="-38.9" font-family="Times Roman,serif" font-size="14.00" fill="gray">TEHxception</text>
</g>
<!-- \\PhpDrush\\PhpDrushException&#45;&gt;\\Exception -->
<g id="edge6" class="edge"><title>\\PhpDrush\\PhpDrushException&#45;&gt;\\Exception</title>
<path fill="none" stroke="black" d="M198.463,-42C178.568,-42 156.585,-42 136.219,-42"/>
<polygon fill="none" stroke="black" points="136.053,-38.5001 126.053,-42 136.053,-45.5001 136.053,-38.5001"/>
</g>
</g>
</svg>
